<svg width="286" height="157" viewBox="0 0 286 157" fill="none" xmlns="http://www.w3.org/2000/svg">
<rect width="286" height="157" rx="6" fill="url(#paint0_linear_0_483)"/>
<rect y="14.7388" width="286" height="34.6041" fill="#2F2F2F"/>
<g clip-path="url(#clip0_0_483)">
<rect x="28.7919" y="64.7224" width="230.975" height="29.7391" rx="4" fill="#ADB5BE"/>
<path d="M231.9 82.7615C231.168 82.7615 230.583 82.5545 230.145 82.1405C229.713 81.7205 229.497 81.0905 229.497 80.2505V78.7205C229.497 77.8985 229.713 77.2745 230.145 76.8485C230.583 76.4225 231.168 76.2095 231.9 76.2095C232.638 76.2095 233.223 76.4225 233.655 76.8485C234.093 77.2745 234.312 77.8985 234.312 78.7205V80.2505C234.312 81.0905 234.093 81.7205 233.655 82.1405C233.223 82.5545 232.638 82.7615 231.9 82.7615ZM231.9 81.9155C232.398 81.9155 232.767 81.7745 233.007 81.4925C233.247 81.2045 233.367 80.8025 233.367 80.2865V78.6665C233.367 78.1505 233.238 77.7545 232.98 77.4785C232.722 77.1965 232.362 77.0555 231.9 77.0555C231.432 77.0555 231.072 77.1995 230.82 77.4875C230.568 77.7695 230.442 78.1625 230.442 78.6665V80.2865C230.442 80.8145 230.562 81.2195 230.802 81.5015C231.048 81.7775 231.414 81.9155 231.9 81.9155ZM238.986 82.7615C238.254 82.7615 237.669 82.5545 237.231 82.1405C236.799 81.7205 236.583 81.0905 236.583 80.2505V78.7205C236.583 77.8985 236.799 77.2745 237.231 76.8485C237.669 76.4225 238.254 76.2095 238.986 76.2095C239.724 76.2095 240.309 76.4225 240.741 76.8485C241.179 77.2745 241.398 77.8985 241.398 78.7205V80.2505C241.398 81.0905 241.179 81.7205 240.741 82.1405C240.309 82.5545 239.724 82.7615 238.986 82.7615ZM238.986 81.9155C239.484 81.9155 239.853 81.7745 240.093 81.4925C240.333 81.2045 240.453 80.8025 240.453 80.2865V78.6665C240.453 78.1505 240.324 77.7545 240.066 77.4785C239.808 77.1965 239.448 77.0555 238.986 77.0555C238.518 77.0555 238.158 77.1995 237.906 77.4875C237.654 77.7695 237.528 78.1625 237.528 78.6665V80.2865C237.528 80.8145 237.648 81.2195 237.888 81.5015C238.134 81.7775 238.5 81.9155 238.986 81.9155ZM246.073 82.7615C245.341 82.7615 244.756 82.5545 244.318 82.1405C243.886 81.7205 243.67 81.0905 243.67 80.2505V78.7205C243.67 77.8985 243.886 77.2745 244.318 76.8485C244.756 76.4225 245.341 76.2095 246.073 76.2095C246.811 76.2095 247.396 76.4225 247.828 76.8485C248.266 77.2745 248.485 77.8985 248.485 78.7205V80.2505C248.485 81.0905 248.266 81.7205 247.828 82.1405C247.396 82.5545 246.811 82.7615 246.073 82.7615ZM246.073 81.9155C246.571 81.9155 246.94 81.7745 247.18 81.4925C247.42 81.2045 247.54 80.8025 247.54 80.2865V78.6665C247.54 78.1505 247.411 77.7545 247.153 77.4785C246.895 77.1965 246.535 77.0555 246.073 77.0555C245.605 77.0555 245.245 77.1995 244.993 77.4875C244.741 77.7695 244.615 78.1625 244.615 78.6665V80.2865C244.615 80.8145 244.735 81.2195 244.975 81.5015C245.221 81.7775 245.587 81.9155 246.073 81.9155Z" fill="white"/>
</g>
<defs>
<linearGradient id="paint0_linear_0_483" x1="-56.9764" y1="15.6386" x2="-39.3362" y2="176.94" gradientUnits="userSpaceOnUse">
<stop stop-color="white"/>
<stop offset="1" stop-color="#D2D3D9"/>
</linearGradient>
<clipPath id="clip0_0_483">
<rect width="230.975" height="29.7391" fill="white" transform="translate(28.7919 64.7224)"/>
</clipPath>
</defs>
</svg>
